# xmcd CD database file
#
# Track frame offsets:
#	225
#	17387
#	39210
#	54497
#	68609
#	90741
#	119013
#	142918
#	167714
#	190384
#	225653
#
# Disc length: 3168 seconds
#
# Revision: 0
# Processed by: cddbd v1.5.1PL0 Copyright (c) Steve Scherf et al.
# Submitted via: CDex 1.51
#
DISCID=880c5d0b
DTITLE=やぐもん - Foul Music
DYEAR=2002
DGENRE=Instrumental
TTITLE0=Opening of "Foul music"
TTITLE1=冬の贈り物
TTITLE2=懲役五十年
TTITLE3=優艶
TTITLE4=Prism
TTITLE5=天空
TTITLE6=サトームセン呪いのテーマ
TTITLE7=Deep blue
TTITLE8=いつか見た風景
TTITLE9=一つ
TTITLE10=End of "Foul music"
EXTD=YEAR: 2002
EXTT0=
EXTT1=
EXTT2=
EXTT3=
EXTT4=
EXTT5=
EXTT6=
EXTT7=
EXTT8=
EXTT9=
EXTT10=
PLAYORDER=
